{
  "asset": {
    "version": "2.0",
    "generator": "ink-ribbon OBJ teaching converter"
  },
  "extensionsUsed": [
    "KHR_materials_specular"
  ],
  "buffers": [
    {
      "uri": "vertices.bin",
      "byteLength": 6519072
    }
  ],
  "bufferViews": [
    {
      "buffer": 0,
      "byteOffset": 0,
      "byteLength": 6519072,
      "byteStride": 32,
      "target": 34962
    }
  ],
  "accessors": [
    {
      "bufferView": 0,
      "byteOffset": 0,
      "componentType": 5126,
      "count": 203721,
      "type": "VEC3",
      "min": [
        -1.916571,
        -1.741018,
        -2.677499
      ],
      "max": [
        1.818695,
        2.884799,
        0.791245
      ]
    },
    {
      "bufferView": 0,
      "byteOffset": 12,
      "componentType": 5126,
      "count": 203721,
      "type": "VEC3"
    },
    {
      "bufferView": 0,
      "byteOffset": 24,
      "componentType": 5126,
      "count": 203721,
      "type": "VEC2"
    }
  ],
  "images": [
    {
      "uri": "diffuse.png"
    },
    {
      "uri": "specular.png"
    }
  ],
  "samplers": [
    {
      "magFilter": 9729,
      "minFilter": 9729,
      "wrapS": 10497,
      "wrapT": 10497
    }
  ],
  "textures": [
    {
      "sampler": 0,
      "source": 0
    },
    {
      "sampler": 0,
      "source": 1
    }
  ],
  "materials": [
    {
      "name": "backpack",
      "pbrMetallicRoughness": {
        "baseColorTexture": {
          "index": 0
        },
        "metallicFactor": 0.0,
        "roughnessFactor": 0.5
      },
      "extensions": {
        "KHR_materials_specular": {
          "specularTexture": {
            "index": 1
          }
        }
      }
    }
  ],
  "meshes": [
    {
      "name": "backpack",
      "primitives": [
        {
          "attributes": {
            "POSITION": 0,
            "NORMAL": 1,
            "TEXCOORD_0": 2
          },
          "material": 0,
          "mode": 4
        }
      ]
    }
  ],
  "nodes": [
    {
      "name": "backpack",
      "mesh": 0
    }
  ],
  "scenes": [
    {
      "nodes": [
        0
      ]
    }
  ],
  "scene": 0
}
